<svg width="68" height="68" viewBox="0 0 68 68" fill="none" xmlns="http://www.w3.org/2000/svg">
<path d="M6.2178 10.3785C6.28156 8.73083 6.98125 7.17196 8.16996 6.02922C9.35866 4.88648 10.9439 4.24877 12.5928 4.25H17.1615C18.809 4.25097 20.3921 4.88965 21.579 6.03216C22.7658 7.17468 23.4643 8.7323 23.528 10.3785L25.33 57.1285C25.3632 57.9862 25.2229 58.8417 24.9174 59.6439C24.6119 60.446 24.1476 61.1782 23.5523 61.7965C22.957 62.4148 22.2429 62.9066 21.453 63.2423C20.663 63.5779 19.8134 63.7506 18.955 63.75H10.7951C9.93672 63.7506 9.0871 63.5779 8.29713 63.2423C7.50716 62.9066 6.79312 62.4148 6.19781 61.7965C5.60249 61.1782 5.13818 60.446 4.8327 59.6439C4.52722 58.8417 4.38686 57.9862 4.42005 57.1285L6.2178 10.3785ZM12.5928 8.5C12.0436 8.49956 11.5156 8.71174 11.1195 9.09205C10.7233 9.47237 10.4898 9.99128 10.4678 10.54L8.6658 57.29C8.65435 57.5761 8.70084 57.8616 8.80249 58.1293C8.90414 58.397 9.05885 58.6414 9.25733 58.8479C9.45581 59.0543 9.69396 59.2184 9.95747 59.3305C10.221 59.4426 10.5044 59.5002 10.7908 59.5H18.9593C19.2457 59.5002 19.5291 59.4426 19.7926 59.3305C20.0561 59.2184 20.2943 59.0543 20.4928 58.8479C20.6912 58.6414 20.846 58.397 20.9476 58.1293C21.0493 57.8616 21.0958 57.5761 21.0843 57.29L19.2823 10.54C19.2603 9.99128 19.0268 9.47237 18.6306 9.09205C18.2345 8.71174 17.7065 8.49956 17.1573 8.5H12.5928ZM57.375 63.75C59.0658 63.75 60.6873 63.0784 61.8829 61.8828C63.0784 60.6873 63.75 59.0658 63.75 57.375V19.125C63.7508 18.7042 63.6266 18.2926 63.3931 17.9424C63.1597 17.5923 62.8275 17.3193 62.4388 17.1582C62.05 16.997 61.6221 16.9549 61.2094 17.0372C60.7967 17.1195 60.4177 17.3225 60.1205 17.6205L46.75 30.9953V19.125C46.7502 18.7154 46.6319 18.3145 46.4094 17.9705C46.187 17.6265 45.8699 17.3542 45.4963 17.1863C45.1227 17.0183 44.7085 16.9619 44.3036 17.0239C43.8987 17.0858 43.5203 17.2635 43.214 17.5355L28.56 30.5618L28.7725 36.0613L42.5 23.8553V36.125C42.4993 36.5458 42.6235 36.9574 42.857 37.3076C43.0904 37.6577 43.4226 37.9307 43.8113 38.0918C44.2001 38.253 44.6279 38.2951 45.0407 38.2128C45.4534 38.1305 45.8323 37.9275 46.1295 37.6295L59.5 24.2548V57.375C59.5 57.9386 59.2762 58.4791 58.8776 58.8776C58.4791 59.2761 57.9386 59.5 57.375 59.5H55.25V46.75C55.25 45.6228 54.8023 44.5418 54.0052 43.7448C53.2082 42.9478 52.1272 42.5 51 42.5H38.25C37.1229 42.5 36.0419 42.9478 35.2448 43.7448C34.4478 44.5418 34 45.6228 34 46.75V59.5H29.3675C29.0538 61.0412 28.4005 62.4931 27.455 63.75H57.375ZM38.25 59.5V46.75H51V59.5H38.25Z" fill="#10496D"/>
</svg>
