<svg width="61" height="61" viewBox="0 0 61 61" fill="none" xmlns="http://www.w3.org/2000/svg">
<g clip-path="url(#clip0_273_395)">
<path d="M30.4491 20.0792C31.7593 20.0792 32.8214 19.0171 32.8214 17.7069C32.8214 16.3968 31.7593 15.3347 30.4491 15.3347C29.139 15.3347 28.0769 16.3968 28.0769 17.7069C28.0769 19.0171 29.139 20.0792 30.4491 20.0792Z" fill="#10496D"/>
<path d="M35.5833 42.3611H32.1944V23.8917H27.1111C26.6617 23.8917 26.2307 24.0702 25.9129 24.388C25.5951 24.7057 25.4166 25.1367 25.4166 25.5861C25.4166 26.0355 25.5951 26.4665 25.9129 26.7843C26.2307 27.102 26.6617 27.2806 27.1111 27.2806H28.8055V42.3611H25.4166C24.9672 42.3611 24.5362 42.5396 24.2185 42.8574C23.9007 43.1752 23.7222 43.6062 23.7222 44.0556C23.7222 44.5049 23.9007 44.9359 24.2185 45.2537C24.5362 45.5715 24.9672 45.75 25.4166 45.75H35.5833C36.0327 45.75 36.4637 45.5715 36.7814 45.2537C37.0992 44.9359 37.2777 44.5049 37.2777 44.0556C37.2777 43.6062 37.0992 43.1752 36.7814 42.8574C36.4637 42.5396 36.0327 42.3611 35.5833 42.3611Z" fill="#10496D"/>
<path d="M30.5 57.6111C25.138 57.6111 19.8963 56.0211 15.4379 53.0421C10.9795 50.063 7.50461 45.8289 5.45264 40.875C3.40066 35.921 2.86377 30.4699 3.90986 25.2109C4.95595 19.9518 7.53803 15.1211 11.3296 11.3295C15.1211 7.53797 19.9519 4.95589 25.2109 3.9098C30.47 2.86371 35.9211 3.4006 40.875 5.45258C45.8289 7.50455 50.0631 10.9795 53.0421 15.4379C56.0211 19.8963 57.6112 25.1379 57.6112 30.5C57.6112 37.6903 54.7548 44.5861 49.6705 49.6704C44.5862 54.7548 37.6904 57.6111 30.5 57.6111ZM30.5 6.77776C25.8082 6.77776 21.2218 8.16904 17.3207 10.7757C13.4196 13.3823 10.379 17.0872 8.58356 21.4219C6.78809 25.7565 6.31831 30.5263 7.23363 35.128C8.14896 39.7296 10.4083 43.9565 13.7259 47.2741C17.0435 50.5917 21.2704 52.8511 25.8721 53.7664C30.4737 54.6817 35.2435 54.2119 39.5781 52.4165C43.9128 50.621 47.6177 47.5804 50.2244 43.6793C52.831 39.7782 54.2223 35.1918 54.2223 30.5C54.2223 24.2085 51.723 18.1746 47.2742 13.7258C42.8254 9.27705 36.7916 6.77776 30.5 6.77776Z" fill="#10496D"/>
</g>
<defs>
<clipPath id="clip0_273_395">
<rect width="61" height="61" fill="white"/>
</clipPath>
</defs>
</svg>
