<svg width="65" height="65" viewBox="0 0 65 65" fill="none" xmlns="http://www.w3.org/2000/svg">
<path d="M8.125 32.5H32.5V36.5625H8.125V32.5ZM4.0625 22.3438H24.375V26.4062H4.0625V22.3438Z" fill="#10496D"/>
<path d="M60.7729 33.7309L54.6792 19.5122C54.5228 19.1467 54.2625 18.8352 53.9306 18.6164C53.5988 18.3976 53.21 18.281 52.8124 18.2812H46.7187V14.2187C46.7187 13.68 46.5047 13.1634 46.1237 12.7824C45.7428 12.4015 45.2262 12.1875 44.6874 12.1875H12.1874V16.25H42.6562V41.7544C41.7306 42.2918 40.9206 43.0072 40.2728 43.8592C39.6251 44.7113 39.1524 45.6831 38.8821 46.7187H26.1177C25.6233 44.804 24.4476 43.1352 22.8108 42.0253C21.1741 40.9154 19.1888 40.4406 17.227 40.6897C15.2651 40.9389 13.4616 41.895 12.1543 43.3789C10.847 44.8627 10.1257 46.7724 10.1257 48.75C10.1257 50.7276 10.847 52.6372 12.1543 54.1211C13.4616 55.6049 15.2651 56.561 17.227 56.8102C19.1888 57.0594 21.1741 56.5845 22.8108 55.4746C24.4476 54.3647 25.6233 52.696 26.1177 50.7812H38.8821C39.324 52.5245 40.3345 54.0707 41.7539 55.1752C43.1732 56.2796 44.9203 56.8793 46.7187 56.8793C48.5171 56.8793 50.2642 56.2796 51.6835 55.1752C53.1028 54.0707 54.1134 52.5245 54.5552 50.7812H58.9062C59.4449 50.7812 59.9616 50.5672 60.3425 50.1863C60.7234 49.8054 60.9374 49.2887 60.9374 48.75V34.5312C60.9375 34.2561 60.8816 33.9837 60.7729 33.7309ZM18.2812 52.8125C17.4777 52.8125 16.6922 52.5742 16.0242 52.1278C15.3561 51.6814 14.8354 51.047 14.5279 50.3046C14.2204 49.5623 14.14 48.7455 14.2967 47.9574C14.4535 47.1694 14.8404 46.4455 15.4085 45.8774C15.9767 45.3092 16.7006 44.9223 17.4886 44.7655C18.2767 44.6088 19.0935 44.6892 19.8358 44.9967C20.5781 45.3042 21.2126 45.8249 21.659 46.493C22.1054 47.161 22.3437 47.9465 22.3437 48.75C22.3426 49.8271 21.9142 50.8598 21.1526 51.6214C20.391 52.383 19.3583 52.8114 18.2812 52.8125ZM46.7187 22.3437H51.4718L55.8268 32.5H46.7187V22.3437ZM46.7187 52.8125C45.9152 52.8125 45.1298 52.5742 44.4617 52.1278C43.7936 51.6814 43.2729 51.047 42.9654 50.3046C42.6579 49.5623 42.5775 48.7455 42.7342 47.9574C42.891 47.1694 43.2779 46.4455 43.8461 45.8774C44.4142 45.3092 45.1381 44.9223 45.9261 44.7655C46.7142 44.6088 47.531 44.6892 48.2733 44.9967C49.0157 45.3042 49.6501 45.8249 50.0965 46.493C50.5429 47.161 50.7812 47.9465 50.7812 48.75C50.7801 49.8271 50.3518 50.8598 49.5901 51.6214C48.8285 52.383 47.7958 52.8114 46.7187 52.8125ZM56.8749 46.7187H54.5552C54.1078 44.9788 53.0957 43.4366 51.6775 42.3338C50.2593 41.231 48.5152 40.63 46.7187 40.625V36.5625H56.8749V46.7187Z" fill="#10496D"/>
</svg>
