<svg width="62" height="62" viewBox="0 0 62 62" fill="none" xmlns="http://www.w3.org/2000/svg">
<path d="M24.5416 18.0833C26.6858 18.0833 28.4166 19.8142 28.4166 21.9583C28.4166 24.1025 26.6858 25.8333 24.5416 25.8333C22.3974 25.8333 20.6666 24.1025 20.6666 21.9583C20.6666 19.8142 22.3974 18.0833 24.5416 18.0833ZM37.4583 36.1667C39.6024 36.1667 41.3333 37.8975 41.3333 40.0417C41.3333 42.1858 39.6024 43.9167 37.4583 43.9167C35.3141 43.9167 33.5833 42.1858 33.5833 40.0417C33.5833 37.8975 35.3141 36.1667 37.4583 36.1667ZM21.7258 43.9167L18.0833 40.2742L40.2741 18.0833L43.9166 21.7258L21.7258 43.9167ZM48.1791 7.36249L49.7549 17.3342L58.8224 21.9583L54.2499 31L58.8483 40.0417L49.7033 44.6658L48.1274 54.6375L38.0783 53.0617L30.9224 60.2175L23.7408 52.9583L13.7691 54.6117L12.1674 44.5625L3.15161 39.9642L7.74994 30.9225L3.17744 21.9583L12.2449 17.2825L13.8208 7.41416L23.8183 9.04166L30.9999 1.79541L38.1299 8.93833L48.1791 7.36249ZM51.9249 24.2058L45.2083 20.6667L43.9166 13.2008L36.4249 14.2858L30.9999 9.04166L25.5749 14.2858L18.0833 13.2008L16.7916 20.6667L10.0749 24.2058L13.4333 31L10.0749 37.7942L16.7916 41.3333L18.0833 48.7992L25.5749 47.7142L30.9999 52.9583L36.4249 47.7142L43.9166 48.7992L45.2083 41.3333L51.9249 37.7942L48.5666 31L51.9249 24.2058Z" fill="#10496D"/>
</svg>
