<svg width="63" height="63" viewBox="0 0 63 63" fill="none" xmlns="http://www.w3.org/2000/svg">
<path d="M40.2397 8.09845L28.275 15.7783L29.4877 16.4424L40.1325 9.60959L58.1878 19.8368L47.8316 26.4841L48.3361 26.7602V27.6029L56.4477 22.396L58.1502 23.3604L48.336 29.6598V31.1023L56.2888 25.9975L58.1502 27.052L48.336 33.3514V34.7938L56.2888 29.689L58.1502 30.7435L48.336 37.0429V38.4854L60.6447 30.5845L57.5897 28.8542L60.6446 26.8932L57.5896 25.1627L60.6445 23.2017L57.7483 21.5611L60.682 19.6779L40.2396 8.09845H40.2397ZM44.0624 13.6036C41.4737 14.9024 38.0257 15.1222 35.598 14.1429L30.8521 17.1892L46.4671 25.7372L50.9684 22.8481C49.1953 21.4483 49.343 19.3597 51.3304 17.7207L44.0623 13.6036H44.0624ZM27.9937 18.1494L19.2958 23.8211L35.9822 33.4269L36.1458 33.3223C36.4534 33.1242 36.8878 32.8437 37.4061 32.5086C38.4421 31.8389 39.8132 30.9508 41.1804 30.0649C43.1494 28.7889 44.164 28.1306 45.1076 27.5186L27.9937 18.1494ZM42.2016 18.2934C42.2017 18.2934 42.2018 18.2934 42.2019 18.2934C42.5955 18.2958 42.9563 18.3801 43.2257 18.5327C43.3825 18.6215 43.5041 18.731 43.5836 18.855C43.6631 18.979 43.6989 19.1151 43.689 19.2554C43.679 19.3958 43.6235 19.5377 43.5257 19.6729C43.4278 19.8082 43.2895 19.9343 43.1186 20.044C42.9478 20.1536 42.7478 20.2447 42.53 20.312C42.3122 20.3793 42.0808 20.4216 41.8492 20.4363C41.6175 20.451 41.3901 20.438 41.1799 20.3979C40.9697 20.3578 40.7809 20.2915 40.6241 20.2027C40.3075 20.0234 40.141 19.7634 40.161 19.4801C40.1811 19.1967 40.3862 18.9131 40.7312 18.6917C40.927 18.5659 41.161 18.4648 41.4157 18.3958C41.6703 18.3268 41.9389 18.2918 42.2016 18.2934V18.2934ZM15.3253 24.0907L2.35552 32.4155L5.25168 34.0561L2.31799 35.9393L5.373 37.6697L2.31799 39.6308L5.373 41.3612L2.31799 43.3223L22.7604 54.9018L35.1025 46.9793V45.5372L22.8676 53.3905L4.8124 43.1632L6.56644 42.0374L22.7604 51.2101L35.1025 43.2879V41.8458L22.8676 49.6991L4.8124 39.4718L6.56644 38.346L22.7604 47.5187L35.1025 39.5965V38.1544L22.8676 46.0077L4.8124 35.7804L6.44523 34.7321L22.7982 43.995L35.1025 36.0969V35.4755L34.4282 35.0874L22.9049 42.4838L4.85018 32.2566L16.5101 24.7724L15.3252 24.0904L15.3253 24.0907ZM17.8428 25.5402L12.0695 29.2458C13.8426 30.6453 13.6949 32.7339 11.7075 34.3731L18.9756 38.4903C21.5641 37.1913 25.0119 36.9716 27.4396 37.9509L33.0955 34.3205L17.8426 25.5401L17.8428 25.5402ZM46.1211 29.5011C45.1313 30.143 44.2584 30.7097 42.385 31.9236C41.1267 32.7394 39.8679 33.5545 38.6087 34.369C38.0898 34.7043 37.6545 34.9854 37.344 35.185C37.333 35.1924 37.3284 35.1948 37.3176 35.2019V45.7745L46.1212 39.8575V29.5011H46.1211ZM21.3899 31.652C21.7835 31.6544 22.1443 31.7389 22.4137 31.8915C22.7302 32.0709 22.8968 32.3308 22.8767 32.6142C22.8566 32.8975 22.6516 33.1811 22.3066 33.4025C21.9616 33.6239 21.5051 33.765 21.0374 33.7948C20.5696 33.8245 20.129 33.7406 19.8124 33.5613C19.4959 33.382 19.3293 33.122 19.3494 32.8386C19.3694 32.5553 19.5745 32.2717 19.9195 32.0503C20.1154 31.9245 20.3494 31.8234 20.604 31.7544C20.8586 31.6855 21.1273 31.6505 21.3899 31.6521V31.652Z" fill="#10496D"/>
</svg>
