<svg width="19" height="19" viewBox="0 0 19 19" fill="none" xmlns="http://www.w3.org/2000/svg">
<path d="M16.1797 8.79492H5.32334L11.8212 3.1543C11.9251 3.06338 11.862 2.89453 11.7247 2.89453H10.0826C10.0103 2.89453 9.9416 2.92051 9.88779 2.96689L2.87598 9.05098C2.81176 9.10664 2.76025 9.17546 2.72495 9.25278C2.68966 9.33009 2.67139 9.41408 2.67139 9.49907C2.67139 9.58406 2.68966 9.66806 2.72495 9.74537C2.76025 9.82268 2.81176 9.8915 2.87598 9.94717L9.92861 16.0684C9.95644 16.0925 9.98984 16.1055 10.0251 16.1055H11.7228C11.8602 16.1055 11.9232 15.9348 11.8193 15.8457L5.32334 10.2051H16.1797C16.2613 10.2051 16.3281 10.1383 16.3281 10.0566V8.94336C16.3281 8.86172 16.2613 8.79492 16.1797 8.79492Z" fill="black"/>
</svg>
