<svg width="46" height="46" viewBox="0 0 46 46" fill="none" xmlns="http://www.w3.org/2000/svg">
<g clip-path="url(#clip0_46_677)">
<path fill-rule="evenodd" clip-rule="evenodd" d="M33.3787 27.5655C32.8076 27.28 30.0073 25.9038 29.486 25.7121C28.9647 25.5224 28.5852 25.4285 28.2037 25.9996C27.8242 26.567 26.7337 27.8511 26.4021 28.2306C26.0686 28.612 25.737 28.658 25.1677 28.3744C24.5985 28.0869 22.7623 27.487 20.5869 25.5473C18.8945 24.037 17.7502 22.172 17.4187 21.6009C17.0871 21.0316 17.3822 20.723 17.6678 20.4394C17.9247 20.1845 18.2371 19.7743 18.5227 19.4427C18.8082 19.1092 18.9022 18.8715 19.0919 18.4901C19.2836 18.1106 19.1877 17.779 19.044 17.4935C18.9022 17.2079 17.7637 14.4038 17.2883 13.2634C16.8264 12.1536 16.3568 12.305 16.008 12.2859C15.6745 12.2705 15.295 12.2667 14.9155 12.2667C14.536 12.2667 13.9188 12.4085 13.3975 12.9797C12.8742 13.549 11.4042 14.927 11.4042 17.7311C11.4042 20.5333 13.4435 23.2415 13.7291 23.623C14.0147 24.0025 17.7445 29.7563 23.4581 32.223C24.8189 32.8095 25.8788 33.1603 26.7049 33.421C28.0696 33.856 29.3116 33.7947 30.2929 33.6471C31.3854 33.4842 33.6624 32.269 34.1377 30.9389C34.6112 29.6087 34.6112 28.4683 34.4693 28.2306C34.3275 27.993 33.948 27.8511 33.3768 27.5655H33.3787ZM22.9866 41.7546H22.9789C19.5853 41.7552 16.254 40.843 13.3342 39.1135L12.6442 38.7033L5.47208 40.5855L7.38683 33.5935L6.93642 32.8766C5.03918 29.8566 4.03515 26.3614 4.04033 22.795C4.04417 12.3491 12.5427 3.85062 22.9942 3.85062C28.0542 3.85062 32.8114 5.82478 36.3879 9.40512C38.152 11.1619 39.5502 13.251 40.5016 15.5517C41.453 17.8523 41.9389 20.3188 41.9309 22.8084C41.9271 33.2542 33.4286 41.7546 22.9866 41.7546ZM39.1096 6.68537C36.9978 4.55964 34.4851 2.87415 31.7172 1.72657C28.9492 0.578988 25.9811 -0.00785859 22.9847 3.2764e-05C10.4228 3.2764e-05 0.1955 10.2255 0.191667 22.793C0.185846 26.7926 1.23505 30.723 3.23342 34.1876L0 46L12.0827 42.8299C15.4251 44.6509 19.1707 45.6051 22.977 45.6052H22.9866C35.5484 45.6052 45.7757 35.3798 45.7796 22.8103C45.7888 19.8151 45.2041 16.8477 44.0592 14.0799C42.9143 11.3121 41.232 8.79882 39.1096 6.68537Z" fill="#2F2F2F"/>
</g>
<defs>
<clipPath id="clip0_46_677">
<rect width="46" height="46" fill="white"/>
</clipPath>
</defs>
</svg>
