<svg width="49" height="49" viewBox="0 0 49 49" fill="none" xmlns="http://www.w3.org/2000/svg">
<path d="M36.75 19.9062H33.6875C33.6863 18.6883 33.2019 17.5206 32.3407 16.6593C31.4794 15.7981 30.3117 15.3137 29.0938 15.3125V12.25C31.1236 12.2524 33.0696 13.0599 34.5049 14.4951C35.9402 15.9304 36.7476 17.8764 36.75 19.9062Z" fill="#2F2F2F"/>
<path d="M42.8748 19.9063H39.8123C39.8091 17.0645 38.6788 14.34 36.6693 12.3305C34.6599 10.3211 31.9354 9.19074 29.0936 9.1875V6.125C32.7474 6.12905 36.2503 7.5823 38.8339 10.1659C41.4175 12.7495 42.8708 16.2525 42.8748 19.9063ZM39.8123 44.4062H39.552C9.46297 42.6759 5.19078 17.2878 4.59359 9.53969C4.50026 8.32502 4.89323 7.12302 5.68608 6.19808C6.47893 5.27314 7.60672 4.70101 8.82137 4.60753C8.94285 4.59835 9.06484 4.59375 9.18734 4.59375H17.257C17.8704 4.59316 18.4698 4.77675 18.9776 5.12075C19.4854 5.46475 19.8782 5.9533 20.1052 6.52313L22.4327 12.25C22.6568 12.8067 22.7124 13.4169 22.5926 14.005C22.4728 14.593 22.1829 15.1328 21.7589 15.5575L18.4973 18.8497C19.0047 21.7458 20.3906 24.4158 22.4669 26.4975C24.5432 28.5793 27.2095 29.9722 30.1042 30.4872L33.427 27.195C33.8581 26.7757 34.403 26.4925 34.9939 26.3809C35.5848 26.2692 36.1955 26.334 36.7498 26.5672L42.5227 28.8794C43.0839 29.1135 43.5627 29.5094 43.8981 30.0166C44.2336 30.5238 44.4104 31.1194 44.4061 31.7275V39.8125C44.4061 41.0308 43.9221 42.1993 43.0606 43.0608C42.1991 43.9223 41.0307 44.4062 39.8123 44.4062ZM9.18734 7.65625C8.98625 7.65565 8.78702 7.69466 8.60101 7.77105C8.41499 7.84745 8.24585 7.95973 8.10324 8.10149C7.96062 8.24326 7.84732 8.41172 7.76981 8.59727C7.6923 8.78282 7.6521 8.98182 7.6515 9.18291C7.6515 9.22578 7.65303 9.26815 7.65609 9.31C8.36047 18.375 12.8777 39.8125 39.7205 41.3438C40.1258 41.368 40.5241 41.2304 40.8279 40.961C41.1317 40.6917 41.3161 40.3127 41.3405 39.9074L41.3436 39.8125V31.7275L35.5708 29.4153L31.1761 33.7794L30.4411 33.6875C17.1192 32.0184 15.3123 18.6966 15.3123 18.5588L15.2205 17.8238L19.5692 13.4291L17.2723 7.65625H9.18734Z" fill="#2F2F2F"/>
</svg>
