<svg width="53" height="48" viewBox="0 0 53 48" fill="none" xmlns="http://www.w3.org/2000/svg">
<path d="M44.1663 7.9035H13.2497C10.8139 7.9035 8.83301 9.67587 8.83301 11.8553V21.7346H13.2497V15.807L27.383 25.2912C27.7654 25.5474 28.2303 25.6859 28.708 25.6859C29.1857 25.6859 29.6506 25.5474 30.033 25.2912L44.1663 15.807V33.5899H26.4997V37.5417H44.1663C46.6021 37.5417 48.583 35.7693 48.583 33.5899V11.8553C48.583 9.67587 46.6021 7.9035 44.1663 7.9035ZM28.708 21.2407L14.7204 11.8553H42.6956L28.708 21.2407Z" fill="#2F2F2F"/>
<path d="M4.41699 23.7105H19.8753V27.6623H4.41699V23.7105ZM8.83366 29.6382H22.0837V33.5899H8.83366V29.6382ZM15.4587 35.5658H24.292V39.5175H15.4587V35.5658Z" fill="#2F2F2F"/>
</svg>
