<svg width="19" height="17" viewBox="0 0 19 17" fill="none" xmlns="http://www.w3.org/2000/svg">
<path d="M15.8333 2.83337H4.74996C3.87675 2.83337 3.16663 3.46875 3.16663 4.25004V7.79171H4.74996V5.66671L9.81663 9.06671C9.95371 9.15856 10.1204 9.2082 10.2916 9.2082C10.4629 9.2082 10.6295 9.15856 10.7666 9.06671L15.8333 5.66671V12.0417H9.49996V13.4584H15.8333C16.7065 13.4584 17.4166 12.823 17.4166 12.0417V4.25004C17.4166 3.46875 16.7065 2.83337 15.8333 2.83337ZM10.2916 7.61462L5.27721 4.25004H15.306L10.2916 7.61462Z" fill="white"/>
<path d="M1.58337 8.5H7.12504V9.91667H1.58337V8.5ZM3.16671 10.625H7.91671V12.0417H3.16671V10.625ZM5.54171 12.75H8.70837V14.1667H5.54171V12.75Z" fill="white"/>
</svg>
