<svg width="59" height="47" viewBox="0 0 59 47" fill="none" xmlns="http://www.w3.org/2000/svg">
<path d="M38.2397 0.0984497L26.275 7.7783L27.4877 8.44238L38.1325 1.60959L56.1878 11.8368L45.8316 18.4841L46.336 18.7602V19.6029L54.4477 14.396L56.1501 15.3604L46.3359 21.6598V23.1023L54.2888 17.9975L56.1501 19.052L46.3359 25.3514V26.7938L54.2888 21.689L56.1501 22.7435L46.3359 29.0429V30.4854L58.6447 22.5845L55.5897 20.8542L58.6446 18.8932L55.5895 17.1627L58.6444 15.2017L55.7483 13.5611L58.682 11.6779L38.2396 0.0984497H38.2397ZM42.0624 5.60357C39.4737 6.90245 36.0257 7.12221 33.598 6.14288L28.8521 9.18915L44.4671 17.7372L48.9684 14.8481C47.1953 13.4483 47.3429 11.3597 49.3304 9.72072L42.0623 5.60357H42.0624ZM25.9937 10.1494L17.2957 15.8211L33.9821 25.4269L34.1458 25.3223C34.4534 25.1242 34.8878 24.8437 35.406 24.5086C36.4421 23.8389 37.8132 22.9508 39.1804 22.0649C41.1494 20.7889 42.164 20.1306 43.1075 19.5186L25.9937 10.1494ZM40.2015 10.2934C40.2017 10.2934 40.2018 10.2934 40.2019 10.2934C40.5954 10.2958 40.9562 10.3801 41.2257 10.5327C41.3825 10.6215 41.5041 10.731 41.5836 10.855C41.6631 10.979 41.6989 11.1151 41.6889 11.2554C41.679 11.3958 41.6235 11.5377 41.5256 11.6729C41.4278 11.8082 41.2895 11.9343 41.1186 12.044C40.9478 12.1536 40.7478 12.2447 40.5299 12.312C40.3121 12.3793 40.0808 12.4216 39.8492 12.4363C39.6175 12.451 39.3901 12.438 39.1799 12.3979C38.9697 12.3578 38.7808 12.2915 38.6241 12.2027C38.3075 12.0234 38.1409 11.7634 38.161 11.4801C38.1811 11.1967 38.3862 10.9131 38.7311 10.6917C38.927 10.5659 39.161 10.4648 39.4156 10.3958C39.6702 10.3268 39.9389 10.2918 40.2015 10.2934ZM13.3253 16.0907L0.355492 24.4155L3.25165 26.0561L0.317963 27.9393L3.37297 29.6697L0.317963 31.6308L3.37297 33.3612L0.317963 35.3223L20.7604 46.9018L33.1025 38.9793V37.5372L20.8675 45.3905L2.81237 35.1632L4.5664 34.0374L20.7604 43.2101L33.1025 35.2879V33.8458L20.8675 41.6991L2.81237 31.4718L4.5664 30.346L20.7604 39.5187L33.1025 31.5965V30.1544L20.8675 38.0077L2.81237 27.7804L4.4452 26.7321L20.7981 35.995L33.1025 28.0969V27.4755L32.4282 27.0874L20.9048 34.4838L2.85015 24.2566L14.5101 16.7724L13.3251 16.0904L13.3253 16.0907ZM15.8428 17.5402L10.0694 21.2458C11.8425 22.6453 11.6949 24.7339 9.70743 26.3731L16.9756 30.4903C19.5641 29.1913 23.0119 28.9716 25.4396 29.9509L31.0955 26.3205L15.8426 17.5401L15.8428 17.5402ZM44.1211 21.5011C43.1313 22.143 42.2584 22.7097 40.385 23.9236C39.1266 24.7394 37.8679 25.5545 36.6087 26.369C36.0898 26.7043 35.6545 26.9854 35.344 27.185C35.3329 27.1924 35.3284 27.1948 35.3176 27.2019V37.7745L44.1212 31.8575V21.5011H44.1211ZM19.3899 23.652C19.7834 23.6544 20.1442 23.7389 20.4136 23.8915C20.7302 24.0709 20.8968 24.3308 20.8767 24.6142C20.8566 24.8975 20.6515 25.1811 20.3066 25.4025C19.9616 25.6239 19.5051 25.765 19.0373 25.7948C18.5696 25.8245 18.129 25.7406 17.8124 25.5613C17.4958 25.382 17.3293 25.122 17.3493 24.8386C17.3694 24.5553 17.5745 24.2717 17.9195 24.0503C18.1154 23.9245 18.3494 23.8234 18.604 23.7544C18.8586 23.6855 19.1272 23.6505 19.3899 23.6521V23.652Z" fill="white"/>
</svg>
