<svg width="60" height="60" viewBox="0 0 60 60" fill="none" xmlns="http://www.w3.org/2000/svg">
<path d="M2.21774 6.3785C2.2815 4.73083 2.98119 3.17196 4.16989 2.02922C5.3586 0.886477 6.94384 0.248769 8.59274 0.250002H13.1615C14.8089 0.250966 16.392 0.889651 17.5789 2.03216C18.7658 3.17468 19.4643 4.7323 19.528 6.3785L21.33 53.1285C21.3632 53.9862 21.2228 54.8417 20.9173 55.6439C20.6119 56.446 20.1475 57.1782 19.5522 57.7965C18.9569 58.4148 18.2429 58.9066 17.4529 59.2423C16.6629 59.5779 15.8133 59.7506 14.955 59.75H6.79499C5.93666 59.7506 5.08704 59.5779 4.29707 59.2423C3.5071 58.9066 2.79306 58.4148 2.19774 57.7965C1.60243 57.1782 1.13812 56.446 0.832636 55.6439C0.527155 54.8417 0.386801 53.9862 0.41999 53.1285L2.21774 6.3785ZM8.59274 4.5C8.04358 4.49956 7.51557 4.71174 7.11941 5.09205C6.72325 5.47237 6.48971 5.99128 6.46774 6.54L4.66574 53.29C4.65429 53.5761 4.70078 53.8616 4.80243 54.1293C4.90408 54.397 5.05879 54.6414 5.25727 54.8479C5.45575 55.0543 5.69389 55.2184 5.95741 55.3305C6.22093 55.4426 6.50438 55.5002 6.79074 55.5H14.9592C15.2456 55.5002 15.529 55.4426 15.7926 55.3305C16.0561 55.2184 16.2942 55.0543 16.4927 54.8479C16.6912 54.6414 16.8459 54.397 16.9475 54.1293C17.0492 53.8616 17.0957 53.5761 17.0842 53.29L15.2822 6.54C15.2603 5.99128 15.0267 5.47237 14.6306 5.09205C14.2344 4.71174 13.7064 4.49956 13.1572 4.5H8.59274ZM53.375 59.75C55.0657 59.75 56.6872 59.0784 57.8828 57.8828C59.0783 56.6873 59.75 55.0658 59.75 53.375V15.125C59.7507 14.7042 59.6265 14.2926 59.3931 13.9424C59.1596 13.5923 58.8275 13.3193 58.4387 13.1582C58.0499 12.997 57.6221 12.9549 57.2094 13.0372C56.7967 13.1195 56.4177 13.3225 56.1205 13.6205L42.75 26.9953V15.125C42.7501 14.7154 42.6318 14.3145 42.4094 13.9705C42.1869 13.6265 41.8698 13.3542 41.4962 13.1863C41.1226 13.0183 40.7084 12.9619 40.3035 13.0239C39.8986 13.0858 39.5203 13.2635 39.214 13.5355L24.56 26.5618L24.7725 32.0613L38.5 19.8553V32.125C38.4992 32.5458 38.6235 32.9574 38.8569 33.3076C39.0903 33.6577 39.4225 33.9307 39.8113 34.0918C40.2 34.253 40.6279 34.2951 41.0406 34.2128C41.4533 34.1305 41.8323 33.9275 42.1295 33.6295L55.5 20.2548V53.375C55.5 53.9386 55.2761 54.4791 54.8776 54.8776C54.4791 55.2761 53.9386 55.5 53.375 55.5H51.25V42.75C51.25 41.6228 50.8022 40.5418 50.0052 39.7448C49.2082 38.9478 48.1272 38.5 47 38.5H34.25C33.1228 38.5 32.0418 38.9478 31.2448 39.7448C30.4478 40.5418 30 41.6228 30 42.75V55.5H25.3675C25.0537 57.0412 24.4004 58.4931 23.455 59.75H53.375ZM34.25 55.5V42.75H47V55.5H34.25Z" fill="white"/>
</svg>
