<svg width="19" height="17" viewBox="0 0 19 17" fill="none" xmlns="http://www.w3.org/2000/svg">
<path d="M15.8333 2.83331H4.74996C3.87675 2.83331 3.16663 3.46869 3.16663 4.24998V7.79165H4.74996V5.66665L9.81663 9.06665C9.95371 9.15849 10.1204 9.20814 10.2916 9.20814C10.4629 9.20814 10.6295 9.15849 10.7666 9.06665L15.8333 5.66665V12.0416H9.49996V13.4583H15.8333C16.7065 13.4583 17.4166 12.8229 17.4166 12.0416V4.24998C17.4166 3.46869 16.7065 2.83331 15.8333 2.83331ZM10.2916 7.61456L5.27721 4.24998H15.306L10.2916 7.61456Z" fill="#3A3A3A"/>
<path d="M1.58337 8.5H7.12504V9.91667H1.58337V8.5ZM3.16671 10.625H7.91671V12.0417H3.16671V10.625ZM5.54171 12.75H8.70837V14.1667H5.54171V12.75Z" fill="#3A3A3A"/>
</svg>
