<svg width="52" height="52" viewBox="0 0 52 52" fill="none" xmlns="http://www.w3.org/2000/svg">
<g clip-path="url(#clip0_273_402)">
<path d="M3.25 26C3.25 19.9663 5.64687 14.1798 9.91332 9.91332C14.1798 5.64687 19.9663 3.25 26 3.25C32.0337 3.25 37.8202 5.64687 42.0867 9.91332C46.3531 14.1798 48.75 19.9663 48.75 26C48.75 32.0337 46.3531 37.8202 42.0867 42.0867C37.8202 46.3531 32.0337 48.75 26 48.75C19.9663 48.75 14.1798 46.3531 9.91332 42.0867C5.64687 37.8202 3.25 32.0337 3.25 26ZM52 26C52 19.1044 49.2607 12.4912 44.3848 7.61522C39.5088 2.73928 32.8956 0 26 0C19.1044 0 12.4912 2.73928 7.61522 7.61522C2.73928 12.4912 0 19.1044 0 26C0 32.8956 2.73928 39.5088 7.61522 44.3848C12.4912 49.2607 19.1044 52 26 52C32.8956 52 39.5088 49.2607 44.3848 44.3848C49.2607 39.5088 52 32.8956 52 26ZM25.9805 39.5135C20.878 39.5135 17.355 36.582 17.1438 32.6398H21.164C21.619 34.9798 23.868 35.9905 26.1333 35.9905C28.704 35.9905 31.2358 34.0502 31.2358 30.5272C31.2358 27.3845 28.8568 25.4247 26.0943 25.4247C23.6015 25.4247 22.0577 26.8872 21.4305 28.0507H17.6963L18.8207 13H34.112V16.5848H22.3438L21.7165 24.1995H21.9245C22.477 23.361 24.2483 21.9895 27.1603 21.9895C31.655 21.9895 35.4835 25.0575 35.4835 30.3907C35.4835 35.8735 31.6355 39.5103 25.9805 39.5103V39.5135Z" fill="#10496D"/>
</g>
<defs>
<clipPath id="clip0_273_402">
<rect width="52" height="52" fill="white"/>
</clipPath>
</defs>
</svg>
