<svg width="29" height="29" viewBox="0 0 29 29" fill="none" xmlns="http://www.w3.org/2000/svg">
<g clip-path="url(#clip0_46_877)">
<path d="M0 25.375C0 26.3364 0.381919 27.2584 1.06174 27.9383C1.74156 28.6181 2.66359 29 3.625 29H25.375C26.3364 29 27.2584 28.6181 27.9383 27.9383C28.6181 27.2584 29 26.3364 29 25.375V3.625C29 2.66359 28.6181 1.74156 27.9383 1.06174C27.2584 0.381919 26.3364 0 25.375 0L3.625 0C2.66359 0 1.74156 0.381919 1.06174 1.06174C0.381919 1.74156 0 2.66359 0 3.625L0 25.375ZM8.15625 13.5938H18.6561L14.7646 9.70413C14.5945 9.53396 14.4989 9.30316 14.4989 9.0625C14.4989 8.82184 14.5945 8.59104 14.7646 8.42087C14.9348 8.25071 15.1656 8.1551 15.4062 8.1551C15.6469 8.1551 15.8777 8.25071 16.0479 8.42087L21.4854 13.8584C21.5698 13.9426 21.6367 14.0426 21.6824 14.1527C21.7281 14.2628 21.7516 14.3808 21.7516 14.5C21.7516 14.6192 21.7281 14.7372 21.6824 14.8473C21.6367 14.9574 21.5698 15.0574 21.4854 15.1416L16.0479 20.5791C15.8777 20.7493 15.6469 20.8449 15.4062 20.8449C15.1656 20.8449 14.9348 20.7493 14.7646 20.5791C14.5945 20.409 14.4989 20.1782 14.4989 19.9375C14.4989 19.6968 14.5945 19.466 14.7646 19.2959L18.6561 15.4062H8.15625C7.9159 15.4062 7.68539 15.3108 7.51543 15.1408C7.34548 14.9709 7.25 14.7404 7.25 14.5C7.25 14.2596 7.34548 14.0291 7.51543 13.8592C7.68539 13.6892 7.9159 13.5938 8.15625 13.5938Z" fill="#10496D"/>
</g>
<defs>
<clipPath id="clip0_46_877">
<rect width="29" height="29" fill="white"/>
</clipPath>
</defs>
</svg>
