<svg width="65" height="65" viewBox="0 0 65 65" fill="none" xmlns="http://www.w3.org/2000/svg">
<path d="M8.125 32.5H32.5V36.5625H8.125V32.5ZM4.0625 22.3438H24.375V26.4062H4.0625V22.3438Z" fill="white"/>
<path d="M60.773 33.7309L54.6792 19.5122C54.5228 19.1467 54.2626 18.8352 53.9307 18.6164C53.5988 18.3976 53.21 18.281 52.8125 18.2812H46.7187V14.2187C46.7187 13.68 46.5047 13.1634 46.1238 12.7824C45.7429 12.4015 45.2262 12.1875 44.6875 12.1875H12.1875V16.25H42.6562V41.7544C41.7307 42.2918 40.9206 43.0072 40.2729 43.8592C39.6251 44.7113 39.1525 45.6831 38.8822 46.7187H26.1178C25.6234 44.804 24.4476 43.1352 22.8109 42.0253C21.1742 40.9154 19.1888 40.4406 17.227 40.6897C15.2652 40.9389 13.4616 41.895 12.1543 43.3789C10.847 44.8627 10.1258 46.7724 10.1258 48.75C10.1258 50.7276 10.847 52.6372 12.1543 54.1211C13.4616 55.6049 15.2652 56.561 17.227 56.8102C19.1888 57.0594 21.1742 56.5845 22.8109 55.4746C24.4476 54.3647 25.6234 52.696 26.1178 50.7812H38.8822C39.324 52.5245 40.3346 54.0707 41.7539 55.1752C43.1732 56.2796 44.9203 56.8793 46.7187 56.8793C48.5172 56.8793 50.2642 56.2796 51.6836 55.1752C53.1029 54.0707 54.1134 52.5245 54.5553 50.7812H58.9063C59.445 50.7812 59.9616 50.5672 60.3426 50.1863C60.7235 49.8054 60.9375 49.2887 60.9375 48.75V34.5312C60.9376 34.2561 60.8816 33.9837 60.773 33.7309ZM18.2812 52.8125C17.4777 52.8125 16.6923 52.5742 16.0242 52.1278C15.3562 51.6814 14.8355 51.047 14.528 50.3046C14.2205 49.5623 14.14 48.7455 14.2968 47.9574C14.4535 47.1694 14.8405 46.4455 15.4086 45.8774C15.9768 45.3092 16.7006 44.9223 17.4887 44.7655C18.2767 44.6088 19.0936 44.6892 19.8359 44.9967C20.5782 45.3042 21.2127 45.8249 21.6591 46.493C22.1055 47.161 22.3437 47.9465 22.3437 48.75C22.3427 49.8271 21.9143 50.8598 21.1527 51.6214C20.391 52.383 19.3583 52.8114 18.2812 52.8125ZM46.7187 22.3437H51.4719L55.8269 32.5H46.7187V22.3437ZM46.7187 52.8125C45.9153 52.8125 45.1298 52.5742 44.4617 52.1278C43.7937 51.6814 43.273 51.047 42.9655 50.3046C42.658 49.5623 42.5776 48.7455 42.7343 47.9574C42.8911 47.1694 43.278 46.4455 43.8461 45.8774C44.4143 45.3092 45.1381 44.9223 45.9262 44.7655C46.7142 44.6088 47.5311 44.6892 48.2734 44.9967C49.0157 45.3042 49.6502 45.8249 50.0966 46.493C50.543 47.161 50.7812 47.9465 50.7812 48.75C50.7802 49.8271 50.3518 50.8598 49.5902 51.6214C48.8285 52.383 47.7959 52.8114 46.7187 52.8125ZM56.875 46.7187H54.5553C54.1079 44.9788 53.0957 43.4366 51.6775 42.3338C50.2593 41.231 48.5153 40.63 46.7187 40.625V36.5625H56.875V46.7187Z" fill="white"/>
</svg>
