<svg width="61" height="61" viewBox="0 0 61 61" fill="none" xmlns="http://www.w3.org/2000/svg">
<g clip-path="url(#clip0_40_149)">
<path d="M30.4491 20.0792C31.7593 20.0792 32.8214 19.0171 32.8214 17.7069C32.8214 16.3968 31.7593 15.3347 30.4491 15.3347C29.139 15.3347 28.0769 16.3968 28.0769 17.7069C28.0769 19.0171 29.139 20.0792 30.4491 20.0792Z" fill="white"/>
<path d="M35.5834 42.3611H32.1945V23.8917H27.1112C26.6618 23.8917 26.2308 24.0702 25.913 24.388C25.5953 24.7057 25.4167 25.1367 25.4167 25.5861C25.4167 26.0355 25.5953 26.4665 25.913 26.7843C26.2308 27.102 26.6618 27.2806 27.1112 27.2806H28.8056V42.3611H25.4167C24.9673 42.3611 24.5364 42.5396 24.2186 42.8574C23.9008 43.1752 23.7223 43.6062 23.7223 44.0556C23.7223 44.5049 23.9008 44.9359 24.2186 45.2537C24.5364 45.5715 24.9673 45.75 25.4167 45.75H35.5834C36.0328 45.75 36.4638 45.5715 36.7816 45.2537C37.0993 44.9359 37.2778 44.5049 37.2778 44.0556C37.2778 43.6062 37.0993 43.1752 36.7816 42.8574C36.4638 42.5396 36.0328 42.3611 35.5834 42.3611Z" fill="white"/>
<path d="M30.5 57.6111C25.138 57.6111 19.8963 56.0211 15.4379 53.0421C10.9795 50.0631 7.50461 45.8289 5.45264 40.875C3.40066 35.9211 2.86377 30.4699 3.90986 25.2109C4.95595 19.9518 7.53803 15.1211 11.3296 11.3296C15.1211 7.53799 19.9519 4.95591 25.2109 3.90982C30.47 2.86373 35.9211 3.40062 40.875 5.4526C45.8289 7.50458 50.0631 10.9795 53.0421 15.4379C56.0211 19.8963 57.6112 25.1379 57.6112 30.5C57.6112 37.6903 54.7548 44.5861 49.6705 49.6705C44.5862 54.7548 37.6904 57.6111 30.5 57.6111ZM30.5 6.77778C25.8082 6.77778 21.2218 8.16906 17.3207 10.7757C13.4196 13.3823 10.379 17.0872 8.58356 21.4219C6.78809 25.7566 6.31831 30.5263 7.23363 35.128C8.14896 39.7296 10.4083 43.9565 13.7259 47.2742C17.0435 50.5918 21.2704 52.8511 25.8721 53.7664C30.4737 54.6817 35.2435 54.212 39.5781 52.4165C43.9128 50.621 47.6177 47.5805 50.2244 43.6794C52.831 39.7783 54.2223 35.1918 54.2223 30.5C54.2223 24.2085 51.723 18.1746 47.2742 13.7259C42.8254 9.27708 36.7916 6.77778 30.5 6.77778Z" fill="white"/>
</g>
<defs>
<clipPath id="clip0_40_149">
<rect width="61" height="61" fill="white"/>
</clipPath>
</defs>
</svg>
