<svg width="56" height="60" viewBox="0 0 56 60" fill="none" xmlns="http://www.w3.org/2000/svg">
<path d="M21.5416 17.0833C23.6858 17.0833 25.4166 18.8142 25.4166 20.9583C25.4166 23.1025 23.6858 24.8333 21.5416 24.8333C19.3974 24.8333 17.6666 23.1025 17.6666 20.9583C17.6666 18.8142 19.3974 17.0833 21.5416 17.0833ZM34.4583 35.1667C36.6024 35.1667 38.3333 36.8975 38.3333 39.0417C38.3333 41.1858 36.6024 42.9167 34.4583 42.9167C32.3141 42.9167 30.5833 41.1858 30.5833 39.0417C30.5833 36.8975 32.3141 35.1667 34.4583 35.1667ZM18.7258 42.9167L15.0833 39.2742L37.2741 17.0833L40.9166 20.7258L18.7258 42.9167ZM45.1791 6.3625L46.7549 16.3342L55.8224 20.9583L51.2499 30L55.8483 39.0417L46.7033 43.6658L45.1274 53.6375L35.0783 52.0617L27.9224 59.2175L20.7408 51.9583L10.7691 53.6117L9.16744 43.5625L0.151611 38.9642L4.74994 29.9225L0.177445 20.9583L9.24494 16.2825L10.8208 6.41417L20.8183 8.04167L27.9999 0.795418L35.1299 7.93833L45.1791 6.3625ZM48.9249 23.2058L42.2083 19.6667L40.9166 12.2008L33.4249 13.2858L27.9999 8.04167L22.5749 13.2858L15.0833 12.2008L13.7916 19.6667L7.07494 23.2058L10.4333 30L7.07494 36.7942L13.7916 40.3333L15.0833 47.7992L22.5749 46.7142L27.9999 51.9583L33.4249 46.7142L40.9166 47.7992L42.2083 40.3333L48.9249 36.7942L45.5666 30L48.9249 23.2058Z" fill="white"/>
</svg>
