<svg width="17" height="17" viewBox="0 0 17 17" fill="none" xmlns="http://www.w3.org/2000/svg">
<path d="M15.625 6.71875H14.4375C14.4362 5.61683 13.9979 4.5604 13.2188 3.78123C12.4396 3.00205 11.3832 2.56376 10.2812 2.5625V1.375C11.698 1.37657 13.0563 1.94008 14.0581 2.94188C15.0599 3.94369 15.6234 5.30198 15.625 6.71875ZM14.4375 16.2188H14.3366C2.66937 15.5478 1.0128 5.70344 0.781241 2.69906C0.745049 2.22807 0.897428 1.76199 1.20486 1.40334C1.51229 1.04469 1.9496 0.822839 2.42058 0.786594C2.46769 0.783032 2.51499 0.781251 2.56249 0.781251H5.69155C5.92939 0.78102 6.16181 0.852209 6.35871 0.985597C6.55562 1.11898 6.70793 1.30842 6.79593 1.52938L7.69843 3.75C7.78533 3.96586 7.80689 4.20248 7.76044 4.43049C7.714 4.6585 7.60159 4.86784 7.43718 5.0325L6.17249 6.30906C6.36924 7.43204 6.9066 8.46733 7.71169 9.27455C8.51679 10.0818 9.55066 10.6219 10.6731 10.8216L11.9616 9.545C12.1287 9.38241 12.34 9.27262 12.5691 9.22933C12.7983 9.18604 13.0351 9.21116 13.25 9.30156L15.4884 10.1981C15.7061 10.2889 15.8917 10.4424 16.0218 10.6391C16.1518 10.8358 16.2204 11.0667 16.2187 11.3025V14.4375C16.2187 14.9099 16.0311 15.363 15.697 15.697C15.363 16.0311 14.9099 16.2188 14.4375 16.2188ZM2.56249 1.96875C2.48452 1.96852 2.40726 1.98364 2.33514 2.01326C2.26301 2.04289 2.19742 2.08643 2.14212 2.1414C2.08682 2.19636 2.04289 2.26169 2.01284 2.33364C1.98278 2.40558 1.96719 2.48275 1.96696 2.56072C1.96696 2.57734 1.96755 2.59377 1.96874 2.61C2.24187 6.125 3.99343 14.4375 14.4019 15.0312C14.559 15.0407 14.7135 14.9873 14.8313 14.8828C14.9491 14.7784 15.0206 14.6315 15.0301 14.4743L15.0312 14.4375V11.3025L12.7928 10.4059L11.0887 12.0981L10.8037 12.0625C5.63812 11.4153 4.93749 6.24969 4.93749 6.19625L4.90187 5.91125L6.58812 4.20719L5.69749 1.96875H2.56249Z" fill="#3A3A3A"/>
</svg>
