<svg width="17" height="16" viewBox="0 0 17 16" fill="none" xmlns="http://www.w3.org/2000/svg">
<path d="M13.2132 11.73L15.2883 13.682C15.385 13.7763 15.4386 13.9026 15.4374 14.0337C15.4362 14.1648 15.3803 14.2902 15.2818 14.3829C15.1833 14.4756 15.0501 14.5282 14.9108 14.5294C14.7715 14.5305 14.6373 14.4801 14.5371 14.389L12.462 12.436C11.106 13.5295 9.35274 14.0861 7.57008 13.9891C5.78742 13.8921 4.11396 13.1491 2.90085 11.9158C1.68775 10.6826 1.02929 9.05513 1.06366 7.37484C1.09802 5.69456 1.82254 4.09211 3.08517 2.90375C4.34781 1.71538 6.05041 1.03349 7.83571 1.00114C9.62102 0.9688 11.3502 1.58852 12.6605 2.73027C13.9708 3.87202 14.7603 5.44704 14.8634 7.12483C14.9664 8.80263 14.375 10.4528 13.2132 11.729V11.73ZM7.96871 13C9.51857 13 11.005 12.4206 12.1009 11.3891C13.1968 10.3577 13.8125 8.95871 13.8125 7.50002C13.8125 6.04133 13.1968 4.64238 12.1009 3.61093C11.005 2.57948 9.51857 2.00002 7.96871 2.00002C6.41886 2.00002 4.93247 2.57948 3.83656 3.61093C2.74064 4.64238 2.12496 6.04133 2.12496 7.50002C2.12496 8.95871 2.74064 10.3577 3.83656 11.3891C4.93247 12.4206 6.41886 13 7.96871 13Z" fill="white"/>
</svg>
